
<svg id="atom" data-name="atom" xmlns="http://www.w3.org/2000/svg" viewBox="0 0 49.36 43.73">
  
 
      <path d="m37.51,14.46c2.2-6.54,2.56-12.19-.5-13.96-1-.58-2.79-.91-5.68.76-2.5,1.58-4.74,3.54-6.65,5.8C20.12,1.88,15.4-1.27,12.34.5s-2.69,7.43-.49,13.97c-2.91.52-5.73,1.48-8.35,2.86C.61,18.99,0,20.72,0,21.87c0,3.54,5.09,6.05,11.85,7.41-.47,1.41-.87,2.84-1.18,4.29-1.07,5.08-.49,8.42,1.67,9.67,1,.58,2.79.91,5.68-.76,2.5-1.58,4.74-3.54,6.65-5.8,4.57,5.18,9.28,8.33,12.35,6.56s2.69-7.43.49-13.97c2.91-.52,5.73-1.48,8.35-2.86h0c2.89-1.67,3.49-3.39,3.5-4.54,0-3.54-5.09-6.04-11.85-7.41Zm-5.39-11.85c1.24-.71,2.95-1.43,4.11-.76,1.9,1.1,1.87,5.85-.29,12.31-2.04-.35-4.19-.6-6.38-.75-1.19-1.79-2.48-3.51-3.85-5.17,1.83-2.2,4-4.1,6.41-5.64Zm-1.34,22.78c-.68,1.18-1.38,2.31-2.1,3.41-1.31.07-2.65.12-4,.12-1.39,0-2.72-.05-4.01-.12-.71-1.08-1.41-2.21-2.1-3.41s-1.32-2.37-1.9-3.52c.59-1.17,1.22-2.35,1.9-3.53s1.38-2.31,2.1-3.41c1.31-.07,2.65-.12,4-.12,1.39,0,2.72.05,4.01.12.71,1.08,1.41,2.21,2.09,3.4s1.32,2.37,1.9,3.52c-.58,1.16-1.21,2.34-1.9,3.54Zm2.76-1.77c.72,1.54,1.35,3.03,1.87,4.45-1.52.25-3.12.46-4.79.6.51-.81,1.02-1.64,1.51-2.49.48-.84.95-1.69,1.4-2.56Zm-5.96,6.8c-.96,1.37-1.93,2.66-2.91,3.84-.97-1.17-1.94-2.45-2.91-3.85.97.04,1.95.06,2.92.06.97,0,1.95-.02,2.91-.06h0Zm-8.87-1.76c-1.69-.14-3.29-.35-4.78-.6.54-1.44,1.17-2.93,1.88-4.43.45.86.92,1.71,1.4,2.55s.99,1.66,1.51,2.48h0Zm-2.91-8.54c-.72-1.54-1.35-3.03-1.88-4.45,1.52-.25,3.12-.46,4.79-.6-.51.81-1.02,1.64-1.51,2.49-.49.85-.95,1.71-1.4,2.56h0Zm5.96-6.81c.96-1.37,1.93-2.66,2.91-3.85.97,1.17,1.94,2.45,2.91,3.85-.97-.04-1.95-.06-2.92-.06s-1.94.02-2.91.06h0Zm8.87,1.76c1.69.14,3.28.35,4.77.59-.52,1.41-1.15,2.9-1.87,4.43-.45-.86-.92-1.71-1.4-2.54s-.98-1.66-1.5-2.48h0ZM13.12,1.85c1.91-1.1,6,1.29,10.53,6.41-1.37,1.65-2.66,3.37-3.85,5.15-2.14.14-4.27.4-6.39.76-2.18-6.48-2.19-11.22-.29-12.32ZM1.57,21.87c0-1.34,1.48-2.47,2.71-3.18,2.54-1.32,5.27-2.25,8.09-2.73.72,1.94,1.58,3.93,2.55,5.91-.95,1.92-1.8,3.9-2.55,5.91-6.68-1.35-10.8-3.7-10.8-5.9Zm15.67,19.26h0c-1.24.71-2.95,1.42-4.11.76-1.45-.84-1.8-3.83-.92-7.99.32-1.46.72-2.91,1.21-4.32,2.04.35,4.2.6,6.39.75,1.23,1.83,2.52,3.57,3.85,5.17-1.83,2.2-4,4.1-6.42,5.64Zm19,.76c-1.91,1.1-6-1.29-10.53-6.41,1.37-1.65,2.66-3.37,3.85-5.15,2.14-.14,4.27-.4,6.39-.76,2.17,6.48,2.19,11.22.29,12.32Zm11.55-20.01c0,1.34-1.47,2.47-2.71,3.18h0c-2.54,1.32-5.27,2.24-8.09,2.73-.75-2.01-1.6-3.99-2.55-5.92.95-1.92,1.8-3.89,2.55-5.9,6.69,1.36,10.81,3.71,10.81,5.91Zm-25.07-3.39c-1.87,1.08-2.52,3.48-1.43,5.35s3.48,2.52,5.35,1.43,2.52-3.48,1.43-5.35h0c-1.08-1.87-3.48-2.51-5.35-1.43Z"/>

</svg>