<?xml version="1.0" encoding="UTF-8"?>
<svg id="Layer_2" data-name="Layer 2" xmlns="http://www.w3.org/2000/svg" viewBox="0 0 48.9 48.9">
  <g id="Layer_1-2" data-name="Layer 1">
    <path id="behance-square" d="m20.36,28.49c0,2.11-1.53,2.77-3.41,2.77h-4.92v-5.77h5.02c2.03.01,3.31.85,3.31,3h0Zm-.84-8.98c0-1.93-1.5-2.39-3.15-2.39h-4.32v4.89h4.66c1.65,0,2.81-.72,2.81-2.5h0Zm14.44,2.53c-1.79-.11-3.34,1.25-3.45,3.04,0,.07,0,.14,0,.2h6.79c-.19-2.02-1.23-3.24-3.33-3.24Zm14.95-16.8v38.42c0,2.89-2.34,5.24-5.24,5.24H5.24C2.35,48.9,0,46.55,0,43.66c0,0,0,0,0,0V5.24C0,2.35,2.35,0,5.24,0h38.42c2.89,0,5.24,2.34,5.24,5.24h0Zm-19.25,11.46h8.49v-2.06h-8.49v2.06Zm-4.69,12.04c0-2.63-1.24-4.9-3.82-5.63,1.88-.9,2.86-1.93,2.86-4.04,0-4.17-3.11-5.18-6.7-5.18H7.42v20.95h10.16c3.81-.02,7.38-1.84,7.38-6.1Zm16.51-1.62c0-4.49-2.63-8.23-7.38-8.23s-7.76,3.47-7.76,8.03,2.98,7.97,7.76,7.97c3.62,0,5.97-1.63,7.1-5.11h-3.68c-.4,1.3-2.03,1.97-3.3,1.97-2.44,0-3.72-1.43-3.72-3.85h10.94c.01-.25.03-.52.03-.79h0Z"/>
  </g>
</svg>