
<svg id="deliver" data-name="deliver" xmlns="http://www.w3.org/2000/svg" viewBox="0 0 23.79 23.79">
 
      <path d="m16.31,5.45c-.17-.07-.36-.11-.54-.11-.78,0-1.41.64-1.41,1.42s.64,1.41,1.42,1.41c.78,0,1.41-.64,1.41-1.42,0-.57-.35-1.08-.87-1.3Z"/>
      <path d="m23.66.96c-.09-.4-.4-.72-.8-.81-1.59-.39-4.08.02-6.84,1.13-2.65,1.03-5.08,2.57-7.15,4.52-.56.56-1.09,1.16-1.57,1.8-1.06-.07-2.13.1-3.11.5C1.13,9.44.25,12.89.02,14.32c-.12.72.37,1.41,1.09,1.53.12.02.24.02.35.01h0l.66-.07s0,0,0,0c-.19.2-.79.79-1.1,3.04-.09.65-.15,1.3-.17,1.95-.01.47.36.86.83.87,0,0,.01,0,.02,0h.02c.65-.02,1.31-.08,1.95-.17,2.26-.32,2.85-.91,3.04-1.1.45-.45.75-1.03.87-1.66.19.09.39.15.59.17h.11s-.37,3.42-.37,3.42h0c-.08.74.45,1.39,1.18,1.47.04,0,.08,0,.13,0,.07,0,.15,0,.22-.02,1.43-.23,4.88-1.1,6.23-4.18.4-.98.57-2.04.5-3.1.64-.48,1.24-1,1.8-1.57,1.96-2.05,3.5-4.46,4.53-7.09,1.1-2.73,1.52-5.24,1.14-6.88ZM5.29,18.36c-.37.24-.86.13-1.09-.24-.16-.25-.17-.56-.02-.82l.65-1.11c.08-.12.12-.25.13-.38.08.34.22.65.47.9l.95.95s-.04.01-.05.02c-.34.23-.68.46-1.03.68Zm13.36-9.13c-.16.38-.39.72-.68,1.01-1.22,1.2-3.18,1.19-4.38-.03-1.2-1.22-1.19-3.18.03-4.38,1.22-1.2,3.18-1.19,4.38.03.88.89,1.13,2.22.65,3.37Z"/>

</svg>