
<svg id="design" data-name="design" xmlns="http://www.w3.org/2000/svg" viewBox="0 0 26.23 26.23">

    <path d="m24.78,18.17h0c-.58-.47-1.29-.75-2.03-.82h-.04c-.34-.02-.67-.15-.92-.4-.35-.23-.44-.69-.21-1.04.06-.08.13-.16.21-.21l1.91-1.69c3.02-2.55,3.39-7.06.85-10.07-.26-.31-.54-.59-.85-.85C21.26,1.04,18.16-.06,14.97,0c-3.93.02-7.72,1.45-10.68,4.04C1.59,6.35.02,9.72,0,13.27c.02,3.55,1.59,6.91,4.29,9.22,1.41,1.24,3.05,2.19,4.82,2.8,1.76.62,3.61.94,5.48.95h.11c3.67.06,7.24-1.2,10.05-3.56.62-.56.97-1.35.97-2.18.02-.87-.32-1.71-.94-2.32ZM4.03,10.09c0-1.11.9-2.02,2.02-2.02,1.11,0,2.02.9,2.02,2.02,0,1.11-.9,2.02-2.02,2.02-.54,0-1.05-.21-1.43-.59-.38-.38-.59-.89-.59-1.43Zm2.52,8.51c-1.11,0-2.02-.9-2.02-2.02,0-1.11.9-2.02,2.02-2.02,1.11,0,2.02.9,2.02,2.02,0,.54-.21,1.05-.59,1.43-.38.38-.89.59-1.43.59Zm2.52-12.55c0-1.11.9-2.02,2.02-2.02,1.11,0,2.02.9,2.02,2.02s-.9,2.02-2.02,2.02c-.54,0-1.05-.21-1.43-.59-.38-.38-.59-.89-.59-1.43Zm4.04,17.09c-1.67,0-3.03-1.36-3.03-3.03s1.36-3.03,3.03-3.03c1.67,0,3.03,1.36,3.03,3.03,0,.8-.32,1.57-.89,2.14-.57.57-1.34.89-2.14.89Zm4.54-15.07c-1.11,0-2.02-.9-2.02-2.02,0-1.11.9-2.02,2.02-2.02,1.11,0,2.02.9,2.02,2.02,0,.54-.21,1.05-.59,1.43-.38.38-.89.59-1.43.59Z"/>

</svg>