
<svg id="discover" data-name="discover" xmlns="http://www.w3.org/2000/svg" viewBox="0 0 25.22 25.22">

      <path d="m0,12.61C0,5.65,5.65,0,12.61,0c6.96,0,12.6,5.65,12.61,12.61,0,6.96-5.65,12.6-12.61,12.61C5.65,25.21,0,19.57,0,12.61Zm17.12,6c.2.2.46.31.74.31.28,0,.55-.11.74-.31.2-.2.31-.46.31-.74,0-.28-.11-.54-.31-.74l-2.81-2.81c.82-1.19,1.16-2.64.96-4.07-.2-1.43-.92-2.73-2.03-3.66-1.11-.92-2.52-1.4-3.96-1.33-1.44.07-2.81.67-3.83,1.69-1.02,1.02-1.62,2.38-1.69,3.83-.07,1.44.41,2.85,1.33,3.96.92,1.11,2.23,1.83,3.66,2.03,1.43.2,2.88-.15,4.07-.97l2.81,2.81Zm-9.79-7.57c0-2.04,1.66-3.7,3.7-3.7h0c2.04,0,3.7,1.66,3.7,3.7h0c0,2.04-1.66,3.7-3.7,3.7h0c-2.04,0-3.7-1.66-3.7-3.7h0s0,0,0,0Z"/>
 

</svg>