
<svg id="figma" data-name="figma" xmlns="http://www.w3.org/2000/svg" viewBox="0 0 30.76 44.25">
    <path d="m0,8.28C0,3.71,3.71,0,8.28,0t0,0h14.21c4.57,0,8.28,3.71,8.28,8.28,0,2.79-1.4,5.39-3.73,6.92,3.82,2.51,4.88,7.65,2.37,11.47-1.53,2.33-4.13,3.73-6.91,3.73h-.18c-2.06,0-4.05-.76-5.57-2.15v7.63c-.02,4.63-3.78,8.37-8.42,8.37C3.75,44.27.03,40.58,0,36c-.01-2.8,1.39-5.42,3.73-6.96C-.09,26.54-1.15,21.4,1.36,17.58c.62-.95,1.43-1.76,2.38-2.38C1.41,13.67,0,11.07,0,8.28Zm14.03,8.28h-5.75c-3.08,0-5.58,2.48-5.59,5.55s2.48,5.58,5.55,5.59h5.78v-11.14Zm2.71,5.57c0,3.08,2.49,5.57,5.56,5.57,0,0,0,0,0,0h.18c3.07.04,5.6-2.42,5.64-5.49.04-3.07-2.42-5.6-5.49-5.64-.05,0-.1,0-.15,0h-.18c-3.07,0-5.56,2.49-5.57,5.56h0Zm-8.46,8.28h-.04c-3.08-.01-5.58,2.47-5.59,5.55s2.47,5.58,5.55,5.59c.04,0,.08,0,.13,0,3.13,0,5.68-2.53,5.7-5.66v-5.48h-5.74Zm0-27.7c-3.07-.04-5.6,2.42-5.64,5.49-.04,3.07,2.42,5.6,5.49,5.64.05,0,.1,0,.15,0h5.75V2.71h-5.75Zm8.46,11.14h5.75c3.07.04,5.6-2.42,5.64-5.49.04-3.07-2.42-5.6-5.49-5.64-.05,0-.1,0-.15,0h-5.75v11.14Z"/>
</svg>