
<svg id="github-icon" data-name="github-icon" xmlns="http://www.w3.org/2000/svg" viewBox="0 0 54.14 52.78">

    <path d="m18.11,42.5c0,.22-.25.39-.57.39-.36.03-.61-.14-.61-.39,0-.22.25-.39.57-.39.33-.03.61.14.61.39Zm-3.39-.49c-.08.22.14.47.47.53.25.12.55.03.68-.22.06-.22-.14-.47-.47-.57-.26-.09-.54.01-.68.25h0Zm4.82-.19c-.32.08-.53.28-.5.53.03.22.32.36.64.28s.53-.28.5-.5-.33-.35-.65-.32h0ZM26.72,0C11.58,0,0,11.49,0,26.63c-.09,11.78,7.36,22.29,18.5,26.11,1.4.25,1.89-.61,1.89-1.32s-.03-4.41-.03-6.7c0,0-7.64,1.64-9.24-3.25,0,0-1.24-3.18-3.03-3.99,0,0-2.5-1.71.18-1.68,1.76.24,3.32,1.27,4.21,2.81,2.39,4.21,6.4,3,7.96,2.28.14-1.39.76-2.69,1.75-3.68-6.1-.68-12.26-1.56-12.26-12.06-.12-2.42.82-4.77,2.58-6.43-.83-2.42-.73-5.06.28-7.41,2.28-.71,7.53,2.95,7.53,2.95,4.49-1.24,9.22-1.24,13.71,0,0,0,5.25-3.67,7.53-2.95,1.01,2.35,1.11,4.99.28,7.41,1.75,1.93,2.82,3.44,2.82,6.43,0,10.53-6.43,11.37-12.53,12.06,1,.86,1.85,2.5,1.85,5.06,0,3.68-.03,8.23-.03,9.12,0,.71.5,1.57,1.89,1.32,11.11-3.81,18.5-14.34,18.31-26.08C54.13,11.49,41.86,0,26.72,0ZM10.61,37.64c-.14.11-.11.36.08.57.18.17.43.25.57.11.14-.11.11-.36-.08-.57-.18-.18-.43-.25-.57-.11Zm-1.18-.88c-.08.14.03.32.25.43.14.11.35.08.46-.06,0,0,0-.01.01-.02.08-.14-.03-.32-.25-.43-.22-.07-.39-.03-.47.08Zm3.54,3.88c-.18.14-.11.47.14.68.25.25.57.28.71.11.14-.14.08-.47-.14-.68-.24-.25-.57-.28-.71-.11Zm-1.24-1.6c-.18.11-.18.39,0,.64s.47.36.61.25c.18-.19.18-.49,0-.68-.15-.26-.43-.36-.61-.22h0Z"/>

</svg>