
<svg id="illustrator" data-name="illustrator" xmlns="http://www.w3.org/2000/svg" viewBox="0 0 42.02 42.01">


      <path d="m37.35,0H4.67C2.09,0,0,2.09,0,4.67v32.68c0,2.58,2.09,4.67,4.67,4.67h32.68c2.58,0,4.67-2.09,4.67-4.67V4.67c0-2.58-2.09-4.67-4.67-4.67Zm0,37.35H4.67V4.67h32.68v32.68Z"/>
      <path d="m13.68,26.4h6.7l1.33,4.36h4.08l-6.49-18.42h-4.67l-6.47,18.42h4.18l1.33-4.36Zm3.29-11.2c.07.3.16.72.33,1.24.16.51.84,2.76,2.08,6.7h-4.74c1.26-4.2,2.05-6.86,2.33-7.94Z"/>
      <polygon points="28.01 30.76 31.72 30.76 31.84 16.76 28.01 16.76 28.01 30.76"/>
      <path d="m29.81,15.01c.57.05,1.13-.14,1.56-.51.36-.36.55-.87.51-1.38,0-1.24-.7-1.87-2.08-1.87s-2.08.63-2.08,1.87.7,1.89,2.08,1.89Z"/>
 
</svg>