
<svg id="invision" data-name="invision" xmlns="http://www.w3.org/2000/svg" viewBox="0 0 42.07 42.07">
  
      <path d="m38.25,0H3.81C1.71,0,0,1.71,0,3.81v34.44c0,2.11,1.71,3.81,3.81,3.81h34.44c2.11,0,3.81-1.71,3.81-3.81V3.81c0-2.11-1.71-3.81-3.81-3.81Zm-21.63,10.7c.02,1.42-1.11,2.59-2.53,2.61s-2.59-1.11-2.61-2.53c-.02-1.42,1.11-2.59,2.53-2.61.01,0,.03,0,.04,0,1.4-.02,2.55,1.11,2.57,2.51,0,0,0,.01,0,.02Zm1.17,4.88h6.46l-.83,3.8c1.13-2.12,3.4-4.13,5.63-4.13,2.38,0,4.34,1.69,4.34,4.95,0,.93-.14,1.86-.41,2.76l-1.21,4.34c-.11.38-.17.77-.19,1.17,0,.76.3,1.13.87,1.13s1.28-.42,2.12-2.72l1.66.64c-.98,3.44-2.76,4.88-4.99,4.88-2.61,0-3.85-1.55-3.85-3.67,0-.64.09-1.28.26-1.89l1.25-4.46c.13-.44.19-.9.19-1.36.11-1.16-.75-2.19-1.91-2.3-.12-.01-.24-.01-.35,0-1.78,0-2.95,1.27-3.55,3.73l-2.42,9.7h-4.23l.76-3.05c-1.24,2.04-2.97,3.31-5.1,3.31-2.58,0-3.79-1.48-3.79-3.71,0-.64.08-1.28.23-1.9l1.93-7.87h-2.98l.91-3.35h7.18l-2.83,11.24c-.16.56-.25,1.14-.26,1.73,0,.72.35.93.91,1.05.34.08,3.02.02,4.49-3.23l1.86-7.45h-3.02l.91-3.35h0Z"/>

</svg>