<?xml version="1.0" encoding="UTF-8"?>
<svg id="Layer_2" data-name="Layer 2" xmlns="http://www.w3.org/2000/svg" viewBox="0 0 43.27 43.27">
  <g id="Layer_1-2" data-name="Layer 1">
    <path id="js-square" d="m38.63,0H4.63C2.07,0,0,2.08,0,4.64v34c0,2.56,2.08,4.64,4.64,4.64h34c2.56,0,4.64-2.08,4.64-4.64V4.64C43.27,2.08,41.19,0,38.63,0c0,0,0,0,0,0Zm-15.09,33.74c0,4.21-2.47,6.13-6.07,6.13-2.61.14-5.03-1.34-6.1-3.72l3.31-2c.64,1.13,1.22,2.09,2.62,2.09s2.18-.52,2.18-2.56v-13.82h4.07v13.88h0Zm9.62,6.13c-3.78,0-6.22-1.8-7.41-4.15l3.31-1.91c.75,1.52,2.31,2.48,4.01,2.47,1.68,0,2.76-.84,2.76-2.01,0-1.39-1.1-1.88-2.97-2.7l-1.01-.44c-2.94-1.25-4.88-2.82-4.88-6.13,0-3.05,2.33-5.37,5.95-5.37,2.4-.18,4.68,1.11,5.78,3.26l-3.17,2.03c-.43-1.07-1.47-1.76-2.62-1.74-.97-.1-1.84.61-1.93,1.58,0,.05,0,.11,0,.16,0,1.22.75,1.71,2.5,2.47l1.01.44c3.46,1.48,5.4,2.99,5.4,6.39,0,3.65-2.88,5.66-6.73,5.66h0Z"/>
  </g>
</svg>