<?xml version="1.0" encoding="UTF-8"?>
<svg id="Layer_2" data-name="Layer 2" xmlns="http://www.w3.org/2000/svg" viewBox="0 0 39.52 40.22">
  <g id="Layer_1-2" data-name="Layer 1">
    <path id="Path_1881" data-name="Path 1881" d="m4.56,16.09h30.4l-2.41-12.06H6.98l-2.41,12.06Zm17.21,4.02v16.09h8.04v4.02H9.71v-4.02h8.04v-16.09H1.65c-.87.05-1.6-.62-1.65-1.48,0-.16,0-.32.05-.48L3.29,1.96C3.55.84,4.54.03,5.69,0h28.14c1.15.03,2.14.84,2.4,1.97l3.24,16.18c.21.85-.31,1.71-1.15,1.92-.15.04-.3.05-.45.05h-16.1Z"/>
  </g>
</svg>