
<svg id="linkedin-icon" data-name="linkedin-icon" xmlns="http://www.w3.org/2000/svg" viewBox="0 0 48.9 48.9">

    <path d="m45.4,0H3.48C1.55.01,0,1.59,0,3.53v41.85c-.01,1.94,1.55,3.52,3.48,3.53h41.92c1.94,0,3.51-1.59,3.5-3.53V3.53c0-1.94-1.56-3.52-3.5-3.53ZM14.78,41.91h-7.25v-23.33h7.26v23.33h-.01Zm-3.62-26.52c-2.32,0-4.2-1.88-4.2-4.2s1.88-4.2,4.2-4.2,4.2,1.88,4.2,4.2-1.88,4.2-4.2,4.2h0Zm30.79,26.52h-7.24v-11.35c0-2.71-.06-6.19-3.76-6.19s-4.35,2.95-4.35,5.99v11.55h-7.25v-23.33h6.95v3.19h.1c1.42-2.42,4.06-3.87,6.86-3.76,7.33,0,8.7,4.83,8.7,11.12v12.79Z"/>

</svg>