<?xml version="1.0" encoding="UTF-8"?>
<svg id="Layer_2" data-name="Layer 2" xmlns="http://www.w3.org/2000/svg" viewBox="0 0 36.27 33.11">
  <g id="Layer_1-2" data-name="Layer 1">
    <g>
      <path d="m24.44,31.46c-1.54-.73-2.59-2.22-2.74-3.92l-.03-1.44v-5.59l-.04.04-.12.09-6.79,4.62c-.21.15-.34.39-.33.65l.04,1.61h.01c.25,3.77,2.57,5.44,6.74,5.44h2.83c.52,0,.81-.22.81-.74.04-.31-.11-.61-.38-.77Z"/>
      <path d="m35.88,31.56c-1.54-.73-2.59-2.22-2.74-3.92l-.03-12.93-.03-8.37v-.7c-.25-3.79-2.57-5.45-6.74-5.45l-2.95.04h-.03c-.52,0-.81.22-.81.74-.04.31.11.61.38.77,1.54.73,2.59,2.22,2.74,3.92l.05,21.3h-.03s0,.66,0,.66c.27,3.79,2.58,5.46,6.77,5.46h2.98c.52,0,.81-.22.81-.74.04-.31-.11-.61-.38-.77Z"/>
      <path d="m21.79,13.66l.04-3.61v-4.06c-.08-3.73-1.56-5.52-5.08-5.82-.57-.09-1.15-.13-1.73-.13h-3.15c-1.15.11-2.14.86-2.57,1.93-.03.01-.01.03-.03,0-1.11-1.34-2.95-1.96-5.48-1.96l-.03.05H.81C.29.05,0,.27,0,.78v.18c0,.25.15.47.37.58.19.09.37.19.54.3,1.24.76,2.06,2.04,2.25,3.48.01.17.03.34.03.53v10.12l6.87-4.55c.32-.22.51-.58.52-.97v-3.06s0,0,0,0c-.05-.74.51-1.37,1.24-1.42h1.3s.03,0,.04,0c.72.04,1.27.65,1.23,1.36v3.9c0,1.26-.66,2.15-2.29,3.32l-1.1.74-6.79,4.49c-.65.43-1.03,1.16-1.03,1.93l.05,5.93c.25,3.79,2.55,5.46,6.74,5.46h.64v-8.71c.07-.61.39-1.16.89-1.51l7.72-5.17c1.26-.96,2.58-2.37,2.58-4.06Z"/>
    </g>
  </g>
</svg>