
<svg id="mockups" data-name="mockups" xmlns="http://www.w3.org/2000/svg" viewBox="0 0 63.5 62.6">

      <path d="m53.79,58.94c-.55,0-1,.45-1,1,0,.37-.3.66-.66.66H11.64c-.36,0-.66-.3-.66-.66v-7.43c0-.55-.45-1-1-1s-1,.45-1,1v7.43c0,1.47,1.19,2.66,2.66,2.66h40.49c1.47,0,2.66-1.19,2.66-2.66,0-.55-.45-1-1-1"/>
      <path d="m9.98,8.84c.55,0,1-.45,1-1V2.66c0-.37.3-.66.66-.66h31.53v7.52c0,1.22.99,2.21,2.21,2.21h7.41v9.86c0,.55.45,1,1,1s1-.45,1-1v-10.92c0-.26-.11-.51-.29-.7L44.88.29h0c-.09-.09-.2-.17-.32-.22-.12-.05-.25-.08-.39-.08H11.64c-1.47,0-2.66,1.19-2.66,2.66v5.17c0,.55.45,1,1,1h0m35.19.68V3.42l6.28,6.31h-6.06c-.12,0-.21-.1-.21-.21h0"/>
      <rect x="13.78" y="3.72" width="2.02" height="2.02"/>
      <rect x="17.99" y="3.72" width="2.02" height="2.02"/>
      <rect x="22.2" y="3.72" width="2.02" height="2.02"/>
      <rect x="44.47" y="28.07" width="4.06" height="2.02"/>
      <rect x="50.86" y="28.07" width="8.34" height="2.02"/>
      <rect x="44.47" y="32.25" width="14.73" height="2.02"/>
      <rect x="8.36" y="39.76" width="2.02" height="2.02"/>
      <rect x="8.36" y="43.98" width="2.02" height="2.02"/>
      <rect x="12.66" y="39.76" width="15.67" height="2.02"/>
      <rect x="12.66" y="43.98" width="15.67" height="2.02"/>
      <path d="m22.2,20.71c1.85,0,3.36-1.5,3.36-3.36s-1.5-3.36-3.36-3.36-3.36,1.5-3.36,3.36h0c0,1.85,1.5,3.36,3.36,3.36m0-4.71c.75,0,1.36.61,1.36,1.36s-.61,1.36-1.36,1.36-1.36-.61-1.36-1.36h0c0-.75.61-1.36,1.36-1.36"/>
      <path d="m10.34,23.46l-4.08,3.4c-.42.35-.48.98-.13,1.41s.98.48,1.41.13l4.08-3.4c.43-.34.51-.97.16-1.4s-.97-.51-1.4-.16c-.01,0-.02.02-.04.03"/>
      <path d="m28.53,26.64l-1.44,1.48c-.39.39-.38,1.03.01,1.41s1.03.38,1.41-.01c0,0,0,0,.01-.01l1.44-1.48c.38-.4.38-1.03-.02-1.41-.4-.38-1.03-.38-1.41.02h0"/>
      <path d="m48.78,44.62c-.54-.14-1.08.19-1.21.72,0,0,0,0,0,0l-1.75,6.92c-.15.53.16,1.08.7,1.23s1.08-.16,1.23-.7c0-.01,0-.03.01-.04l1.75-6.93c.14-.54-.19-1.08-.72-1.21,0,0,0,0,0,0"/>
      <path d="m43.61,46.97c-.37-.41-1.01-.44-1.41-.06h0s-1.53,1.4-1.53,1.4c-.41.37-.44,1.01-.06,1.41h0s1.53,1.67,1.53,1.67c.38.4,1.01.41,1.41.03.39-.37.41-.98.06-1.38l-.85-.93.79-.73c.41-.37.44-1.01.06-1.41h0"/>
      <path d="m52.94,46.91c-.41-.37-1.04-.35-1.41.06-.37.41-.35,1.04.06,1.41h0l.79.73-.85.93c-.37.41-.35,1.04.06,1.42.41.37,1.04.35,1.42-.06l1.53-1.67c.37-.41.35-1.04-.06-1.41h0s-1.53-1.4-1.53-1.4Z"/>
      <path d="m32.69,48.79v-12.06c0-.77-.63-1.4-1.4-1.4H5.57c-.77,0-1.4.63-1.4,1.4h0v12.06c0,.77.63,1.4,1.4,1.4h25.71c.77,0,1.4-.63,1.4-1.4h0m-2-.6H6.17v-10.86h24.51v10.86Z"/>
      <path d="m61.81,23.88h-19.77c-.93,0-1.69.76-1.69,1.69v11.43c0,.93.76,1.69,1.69,1.69h19.77c.93,0,1.69-.76,1.69-1.69v-11.43c0-.93-.76-1.69-1.69-1.69m-.31,12.81h-19.16v-10.81h19.16v10.81Z"/>
      <path d="m57.95,40.77h-20.76c-1.24,0-2.25,1.01-2.25,2.25v12.43c0,1.24,1.01,2.25,2.25,2.25h20.76c1.24,0,2.25-1.01,2.25-2.25v-12.43c0-1.24-1.01-2.25-2.25-2.25m.25,14.68c0,.14-.11.25-.25.25h-20.76c-.14,0-.25-.11-.25-.25v-12.43c0-.14.11-.25.25-.25h20.76c.14,0,.25.11.25.25v12.43Z"/>
      <path d="m37.83,32.25V11.29c0-.55-.45-1-1-1H7.36c-.27,0-.52.11-.71.3h0L.28,17.13C.1,17.31,0,17.56,0,17.83v14.42C0,32.8.45,33.25,1,33.25h35.83c.55,0,1-.45,1-1m-2-6.34l-5.73-4.9c-.38-.33-.95-.32-1.32.02l-6.58,5.93-10.03-9.22c-.36-.34-.92-.35-1.31-.04l-8.88,7.17v-6.09h5.36c.55,0,1-.45,1-1v-5.48h27.48v13.61ZM3.42,16.77l2.94-3.02v3.02h-2.94Zm-1.42,14.47v-3.82l9.46-7.64,10.07,9.25c.38.35.96.35,1.35,0l6.6-5.95,6.36,5.43v2.71H2Z"/>
</svg>