
<svg id="photoshop" data-name="photoshop" xmlns="http://www.w3.org/2000/svg" viewBox="0 0 42.01 42.01">

      <path d="m37.35,4.67v32.68H4.67V4.67h32.68m0-4.67H4.67C2.09,0,0,2.09,0,4.67h0v32.68c0,2.58,2.09,4.67,4.67,4.67h32.68c2.58,0,4.67-2.09,4.67-4.67V4.67C42.01,2.09,39.93,0,37.35,0Z"/>
        <path d="m21.26,17.44c.1,1.71-.59,3.38-1.87,4.52-1.51,1.14-3.37,1.69-5.25,1.56h-1.66v6.52h-3.9V11.67h5.86c1.8-.12,3.59.39,5.06,1.45,1.23,1.08,1.88,2.68,1.75,4.32h0Zm-8.78,2.92h1.26c.92.05,1.83-.21,2.59-.72.63-.49.96-1.26.89-2.05.07-.75-.21-1.5-.75-2.03-.68-.49-1.5-.72-2.33-.65h-1.66v5.46Z"/>
        <path d="m33.42,25.88c.07,1.27-.49,2.5-1.49,3.29-1.34.84-2.91,1.23-4.48,1.12-.88.01-1.75-.06-2.61-.21-.7-.12-1.38-.33-2.03-.61v-3.15c.75.34,1.53.62,2.33.84.76.19,1.55.3,2.33.33,1.38,0,2.08-.4,2.08-1.19.01-.28-.09-.55-.28-.75-.28-.26-.59-.47-.93-.63l-1.82-.84c-.83-.32-1.61-.75-2.33-1.26-.47-.34-.84-.79-1.1-1.31-.25-.58-.37-1.21-.35-1.84-.04-1.15.5-2.24,1.45-2.89,1.24-.75,2.67-1.11,4.12-1.03,1.7,0,3.39.38,4.92,1.12l-1.14,2.75c-.64-.28-1.29-.53-1.96-.75-.6-.19-1.23-.28-1.87-.28-1.14,0-1.7.3-1.7.91.02.37.23.71.56.89.74.45,1.52.83,2.33,1.12.82.32,1.61.74,2.33,1.24.47.35.86.8,1.12,1.33.32.55.5,1.17.53,1.8Z"/>

</svg>