<?xml version="1.0" encoding="UTF-8"?>
<svg id="Layer_2" data-name="Layer 2" xmlns="http://www.w3.org/2000/svg" viewBox="0 0 38.87 38.87">
  <g id="Layer_1-2" data-name="Layer 1">
    <g id="project">
      <path id="Union_8" data-name="Union 8" d="m6.68,38.81c-.89-.25-1.4-1.18-1.15-2.06h0s2.12-7.44,2.12-7.44h-3.26c-2.43,0-4.4-1.97-4.4-4.4V7.14C0,4.71,1.97,2.74,4.4,2.74h13.37v-1.07c0-.92.75-1.67,1.67-1.67s1.67.75,1.67,1.67v1.07h13.36c2.43,0,4.4,1.97,4.4,4.4v17.77c0,2.43-1.97,4.4-4.4,4.4h-3.57l2.15,7.52c.21.73-.21,1.48-.94,1.69s-1.48-.21-1.69-.94l-2.36-8.27h-7.26v3.8c0,.75-.61,1.37-1.37,1.37s-1.37-.61-1.37-1.37h0v-3.8h-6.94l-2.39,8.36c-.21.71-.86,1.21-1.6,1.21-.16,0-.31-.02-.46-.06Zm27.79-12.84c.59,0,1.06-.48,1.07-1.06V7.14c0-.59-.48-1.07-1.07-1.07H4.4c-.59,0-1.06.48-1.06,1.07v17.77c0,.59.48,1.06,1.06,1.06h30.07Z"/>
    </g>
  </g>
</svg>