
<svg id="prototypes" data-name="prototypes" xmlns="http://www.w3.org/2000/svg" viewBox="0 0 36.72 62.74">
 
      <path d="m33.54,28.05c1.76,0,3.18-1.43,3.18-3.18V3.18c0-1.76-1.43-3.18-3.18-3.18h-10.84c-1.76,0-3.18,1.43-3.18,3.18v6.58c-.56-.04-1.04.38-1.08.94-.02.29.09.58.3.79l1.52,1.52h-3.04V3.18c0-1.76-1.43-3.18-3.18-3.18H3.18C1.43,0,0,1.43,0,3.18v21.68c0,1.76,1.43,3.18,3.18,3.18h4.4v6.64H3.18c-1.76,0-3.18,1.43-3.18,3.18v21.68c0,1.76,1.43,3.18,3.18,3.19h10.84c1.76,0,3.18-1.43,3.18-3.18v-21.68c0-1.76-1.43-3.18-3.18-3.18h-4.4v-6.64h4.4c1.76,0,3.18-1.43,3.18-3.18v-9.82h3.03l-1.52,1.52c-.4.4-.4,1.04,0,1.44.19.19.45.3.72.3h.07v6.57c0,1.76,1.43,3.18,3.19,3.18h4.4v6.64h-4.4c-1.76,0-3.18,1.43-3.18,3.18v21.68c0,1.76,1.43,3.18,3.18,3.18h10.84c1.76,0,3.18-1.43,3.18-3.18v-21.68c0-1.76-1.43-3.18-3.18-3.18h-4.4v-6.64h4.4Zm-19.51,8.67c.64,0,1.15.52,1.15,1.15v21.68c0,.64-.52,1.15-1.15,1.15H3.18c-.64,0-1.15-.52-1.15-1.15v-21.68c0-.64.52-1.15,1.15-1.15h4.4v4.12l-1.51-1.52c-.4-.4-1.04-.4-1.44,0s-.4,1.04,0,1.44l3.25,3.25h0s.05.04.07.06l.04.03s.03.02.05.03l.04.03.04.03.04.02s.03.01.05.02l.04.02.05.02h.05s.05.02.05.02h.05s.05.01.05.01c.03,0,.07,0,.1,0,.03,0,.07,0,.1,0h.04s.05-.01.05-.01h.05s.05-.02.05-.02l.05-.02.04-.02.05-.02.04-.02.04-.03.04-.03s.03-.02.05-.03l.03-.03s.05-.04.07-.06h0l3.25-3.25c.4-.4.4-1.04,0-1.44s-1.04-.4-1.44,0l-1.51,1.51v-4.12h4.4Zm-5.42-21.55c-.64,0-1.15-.52-1.15-1.15s.52-1.15,1.15-1.15,1.15.52,1.15,1.15c0,.64-.52,1.15-1.15,1.15m6.57,9.69c0,.64-.52,1.15-1.15,1.15h-4.4v-8.98c.94-.32,1.68-1.06,2-2h3.56v9.82h0Zm0-11.86h-3.55c-.56-1.67-2.37-2.56-4.03-2-1.67.56-2.56,2.37-2,4.03.32.94,1.06,1.69,2,2v8.98H3.19c-.64,0-1.15-.52-1.15-1.15V3.18c0-.63.51-1.15,1.15-1.15h10.84c.64,0,1.15.52,1.15,1.15v9.82h0Zm7.53,13.01c-.64,0-1.15-.52-1.15-1.15v-8.25l1.87-1.87c.4-.4.4-1.04,0-1.44,0,0,0,0,0,0l-1.87-1.87V3.18c0-.64.52-1.15,1.15-1.15h10.84c.64,0,1.15.52,1.15,1.15v21.68c0,.64-.52,1.15-1.15,1.15h-4.4v-8.98c1.67-.56,2.56-2.37,2-4.03s-2.37-2.56-4.03-2c-1.67.56-2.56,2.37-2,4.03.32.94,1.06,1.68,2,2v8.98h-4.4Zm10.84,10.7c.64,0,1.15.52,1.15,1.15v21.69c0,.64-.52,1.15-1.15,1.15h-10.84c-.64,0-1.15-.52-1.15-1.15v-21.68c0-.64.52-1.15,1.15-1.15h4.4v4.12l-1.52-1.52c-.4-.4-1.04-.4-1.44,0s-.4,1.04,0,1.44l3.25,3.25h0s.05.04.07.06l.03.03s.03.02.05.03l.04.03.04.03.04.02s.03.01.05.02l.04.02.05.02h.05s.05.02.05.02h.05s.05.01.05.01c.03,0,.07,0,.1,0,.03,0,.07,0,.1,0h.05s.05-.01.05-.01h.05s.05-.02.05-.02l.05-.02.04-.02.05-.02.04-.02.04-.03.04-.03s.03-.02.05-.03l.03-.03s.05-.04.07-.06h0l3.25-3.25c.4-.4.4-1.04,0-1.44s-1.04-.4-1.44,0l-1.52,1.52v-4.12h4.41Zm-5.42-21.55c-.64,0-1.15-.52-1.15-1.15,0-.64.52-1.15,1.15-1.15s1.15.52,1.15,1.15c0,.64-.52,1.15-1.15,1.15"/>

</svg>