
<svg id="research" data-name="research" xmlns="http://www.w3.org/2000/svg" viewBox="0 0 60.7 62.13">
 
      <path d="m6.18,37.43h12.19c.55,0,1-.45,1-1s-.45-1-1-1H6.18c-.55,0-1,.45-1,1s.45,1,1,1"/>
      <path d="m18.37,41.59c.55,0,1-.45,1-1s-.45-1-1-1H6.18c-.55,0-1,.45-1,1s.45,1,1,1h12.19Z"/>
      <path d="m40.55,56.26h-1.26v-9.49c0-.55-.45-1-1-1h-4.6c-.55,0-1,.45-1,1v9.49h-1.72v-13.67c0-.55-.45-1-1-1h-4.6c-.55,0-1,.45-1,1v13.67h-1.74v-9.49c0-.55-.45-1-1-1h-4.6c-.55,0-1,.45-1,1v9.49h-1.54v-5.62c0-.55-.45-1-1-1h-4.6c-.55,0-1,.45-1,1v5.62h-.92c-.55,0-1,.45-1,1s.45,1,1,1h33.59c.55,0,1-.45,1-1s-.45-1-1-1m-30.67-4.62h2.6v4.62h-2.6v-4.62Zm8.14-3.86h2.6v8.49h-2.6v-8.49Zm8.34-4.19h2.6v12.67h-2.6v-12.67Zm8.32,4.19h2.6v8.49h-2.6v-8.49Z"/>
      <path d="m23.63,23.23c0,7.42,6.01,13.43,13.42,13.43,7.42,0,13.43-6.01,13.43-13.42,0-7.42-6.01-13.43-13.42-13.43h0c-7.41,0-13.42,6.01-13.43,13.43m24.85,0c.06,6.31-5.01,11.47-11.32,11.53-6.31.06-11.47-5.01-11.53-11.32,0-.07,0-.14,0-.21,0-.13.01-.25.02-.38l4.19,3.87c-.24.46-.37.98-.38,1.5,0,1.82,1.48,3.3,3.3,3.3,1.82,0,3.3-1.48,3.3-3.3,0-.54-.14-1.07-.4-1.55l4.31-5.58c.36.13.74.21,1.12.21,1.83,0,3.32-1.47,3.33-3.3s-1.47-3.32-3.3-3.33c-1.83,0-3.32,1.47-3.33,3.3,0,.68.2,1.34.59,1.9l-4.16,5.39c-.93-.48-2.04-.47-2.97.03l-5.26-4.86c1.54-6.12,7.74-9.83,13.86-8.29,5.08,1.28,8.64,5.85,8.64,11.09m-17.02,4.99c0-.72.58-1.3,1.3-1.3s1.3.58,1.3,1.3-.58,1.3-1.3,1.3h0c-.72,0-1.3-.58-1.3-1.3m8.33-10.22c0-.72.58-1.3,1.3-1.3s1.3.58,1.3,1.3-.58,1.3-1.3,1.3h0c-.72,0-1.3-.58-1.3-1.3"/>
      <path d="m60.04,53.67l-6.98-12.39c-.27-.48-.88-.65-1.36-.38,0,0,0,0,0,0l-.62.36-2.57-4.66c7.39-6.29,8.28-17.37,1.99-24.76-.96-1.12-2.05-2.12-3.25-2.97V2.25C47.24,1,46.23,0,44.99,0H11.36c-.27,0-.53.11-.72.31L.28,11.08C.1,11.27,0,11.52,0,11.78v48.11c0,1.24,1.01,2.24,2.25,2.25h42.75c1.24,0,2.24-1.01,2.25-2.25v-8.85l4.26,7.55c.65,1.14,1.73,1.97,3,2.3.42.11.85.17,1.28.17,2.73,0,4.93-2.22,4.92-4.95,0-.86-.23-1.7-.65-2.44m-10.7-11.4l-1.99,1.15-2.46-4.44c.69-.34,1.36-.72,2-1.14l2.45,4.43Zm3.34-19.04c0,8.63-7,15.62-15.63,15.61-8.63,0-15.62-7-15.61-15.63,0-8.62,6.99-15.61,15.61-15.61,8.62,0,15.61,7,15.62,15.63M10.36,3.48v7.66H2.99l7.37-7.66Zm34.87,56.4c0,.14-.11.25-.25.25H2.25c-.14,0-.25-.11-.25-.25V13.15h9.36c.55,0,1-.45,1-1V2h32.63c.14,0,.25.11.25.25v5.38c-8.58-4.52-19.21-1.23-23.73,7.35-.15.28-.29.57-.42.86l-.67-.63c.22-.44.33-.93.34-1.43,0-1.82-1.48-3.3-3.3-3.3s-3.3,1.48-3.3,3.3c0,.76.27,1.5.76,2.08l-5.08,9.14c-1.77-.42-3.55.68-3.97,2.45-.42,1.77.68,3.55,2.45,3.97,1.77.42,3.55-.68,3.97-2.45.06-.25.09-.51.09-.77,0-.8-.3-1.57-.83-2.16l5.05-9.08c.82.24,1.71.13,2.45-.3l1.26,1.17c-3,9.23,2.06,19.15,11.29,22.15,3.74,1.22,7.79,1.14,11.48-.21l2.56,4.64-.74.43c-.47.27-.64.88-.37,1.36l.73,1.29v12.4ZM18.74,13.79c0,.72-.58,1.3-1.3,1.3-.72,0-1.3-.58-1.3-1.3s.58-1.3,1.3-1.3h0c.72,0,1.3.58,1.3,1.3m-8.37,14.42c0,.72-.58,1.3-1.3,1.3s-1.3-.58-1.3-1.3.58-1.3,1.3-1.3h0c.72,0,1.3.58,1.3,1.3m46.87,30.45c-1.4.81-3.19.33-4-1.06l-6.49-11.52.72-.41h0l4.36-2.52,6.49,11.51c.81,1.4.33,3.19-1.07,4.01"/>

</svg>