<?xml version="1.0" encoding="UTF-8"?>
<svg id="Layer_2" data-name="Layer 2" xmlns="http://www.w3.org/2000/svg" viewBox="0 0 26.23 26.23">
  <g id="Layer_1-2" data-name="Layer 1">
    <path id="revise" d="m13.12,0C5.87,0,0,5.87,0,13.11c0,7.24,5.87,13.12,13.11,13.12,7.24,0,13.12-5.87,13.12-13.11h0C26.22,5.88,20.36,0,13.12,0Zm0,19.74c-3.27,0-5.93-2.65-5.93-5.93,0-3.27,2.65-5.93,5.93-5.93h.27l-.89-.89c-.33-.36-.31-.92.04-1.25.34-.32.87-.32,1.2,0l2.52,2.52c.34.34.34.9,0,1.25l-2.52,2.52c-.33.36-.89.38-1.25.04-.36-.33-.38-.89-.04-1.25.01-.01.03-.03.04-.04l1.14-1.14c-.15,0-.32,0-.51,0-2.3,0-4.16,1.86-4.16,4.16s1.86,4.16,4.16,4.16,4.16-1.86,4.16-4.16h0c-.02-.49.37-.9.85-.91.49-.02.9.37.91.85,0,.02,0,.04,0,.06,0,3.27-2.66,5.92-5.93,5.93h0Z"/>
  </g>
</svg>