<?xml version="1.0" encoding="UTF-8"?>
<svg id="Layer_2" data-name="Layer 2" xmlns="http://www.w3.org/2000/svg" viewBox="0 0 32.97 35.26">
  <g id="Layer_1-2" data-name="Layer 1">
    <path id="user-2" d="m20.02,19.95h-7.07C5.8,19.95,0,25.75,0,32.9c0,1.3,1.05,2.35,2.36,2.35h28.26c1.3,0,2.35-1.05,2.36-2.35,0-7.15-5.8-12.95-12.95-12.95ZM3.61,31.72c.6-4.71,4.6-8.24,9.35-8.24h7.07c4.75,0,8.75,3.54,9.35,8.24H3.61Zm12.86-12.88c5.2,0,9.42-4.22,9.42-9.42S21.67,0,16.46,0,7.04,4.22,7.04,9.42s4.22,9.42,9.42,9.42h0Zm0-15.31c3.25,0,5.89,2.64,5.89,5.89s-2.64,5.89-5.89,5.89-5.89-2.64-5.89-5.89c0-3.25,2.64-5.88,5.89-5.89Z"/>
  </g>
</svg>