<?xml version="1.0" encoding="UTF-8"?>
<svg id="Layer_2" data-name="Layer 2" xmlns="http://www.w3.org/2000/svg" viewBox="0 0 27 27">
  <g id="Layer_1-2" data-name="Layer 1">
    <g id="Group_1917" data-name="Group 1917">
      <g id="Group_1489" data-name="Group 1489">
        <g id="Group_1488" data-name="Group 1488">
          <path id="Ellipse_2" data-name="Ellipse 2" d="m13.5,1.72c-6.51,0-11.78,5.28-11.78,11.79,0,4.73,2.83,9,7.19,10.84,5.99,2.53,12.91-.28,15.44-6.27,2.53-5.99-.28-12.91-6.27-15.44-1.45-.61-3.01-.93-4.58-.92m0-1.72c7.46,0,13.5,6.04,13.5,13.5s-6.04,13.5-13.5,13.5S0,20.96,0,13.5,6.04,0,13.5,0Z"/>
        </g>
      </g>
      <path id="paper-plane" d="m17.14,4.59c-.25-.09-.53-.03-.71.16L5.54,15.64c-.19.19-.25.46-.17.72.08.25.3.43.56.47l4.72.65.84,3.18c.06.25.26.44.5.5.1.03.21.03.31,0,.13-.03.24-.11.33-.2l2.55-2.84,3.03.42c.21.03.42-.04.57-.19.15-.15.23-.36.2-.58l-1.42-12.6c0-.27-.18-.5-.43-.58Zm-2.81,4.22l-3.63,7.26-3.2-.44,6.83-6.83Zm-1.86,10.26l-.37-1.38,1.43.2-1.06,1.19Zm5.09-2.05l-5.44-.75,4.37-8.68,1.07,9.44Z"/>
    </g>
  </g>
</svg>