
<svg id="slack" data-name="slack" xmlns="http://www.w3.org/2000/svg" viewBox="0 0 41.89 41.88">
  
    <path d="m8.8,26.47c0,2.43-1.97,4.4-4.4,4.4S0,28.9,0,26.47s1.97-4.4,4.4-4.4h4.4v4.4Zm2.22,0c0-2.43,1.97-4.4,4.4-4.4s4.4,1.97,4.4,4.4v11.02c0,2.43-1.97,4.4-4.4,4.4s-4.4-1.97-4.4-4.4c0,0,0-11.02,0-11.02Zm4.4-17.67c-2.43,0-4.4-1.97-4.4-4.4S12.99,0,15.42,0c2.43,0,4.4,1.97,4.4,4.4v4.4h-4.4Zm0,2.22c2.43,0,4.4,1.97,4.4,4.4,0,2.43-1.97,4.4-4.4,4.4H4.4C1.97,19.82,0,17.85,0,15.42c0-2.43,1.97-4.4,4.4-4.4h11.02Zm17.67,4.4c0-2.43,1.97-4.4,4.4-4.4s4.4,1.97,4.4,4.4-1.97,4.4-4.4,4.4h-4.4v-4.4Zm-2.22,0c0,2.43-1.97,4.4-4.4,4.4-2.43,0-4.4-1.97-4.4-4.4V4.4C22.07,1.97,24.04,0,26.47,0c2.43,0,4.4,1.97,4.4,4.4v11.02Zm-4.4,17.67c2.43,0,4.4,1.97,4.4,4.4s-1.97,4.4-4.4,4.4-4.4-1.97-4.4-4.4v-4.4h4.4Zm0-2.22c-2.43,0-4.4-1.97-4.4-4.4,0-2.43,1.97-4.4,4.4-4.4h11.02c2.43,0,4.4,1.97,4.4,4.4,0,2.43-1.97,4.4-4.4,4.4h-11.02Z"/>

</svg>