<?xml version="1.0" encoding="UTF-8"?>
<svg id="Layer_2" data-name="Layer 2" xmlns="http://www.w3.org/2000/svg" viewBox="0 0 34.61 34.61">
  <g id="Layer_1-2" data-name="Layer 1">
    <path id="clock" d="m15.68,8.11c0-.9.73-1.62,1.62-1.62s1.62.73,1.62,1.62v8.33l5.77,3.84c.72.47.92,1.45.45,2.17-.02.03-.04.06-.06.08-.43.7-1.35.92-2.05.49-.05-.03-.1-.06-.14-.1l-6.49-4.32c-.47-.28-.75-.8-.72-1.35v-9.14ZM17.31,0C26.86,0,34.61,7.75,34.61,17.31s-7.75,17.31-17.31,17.31S0,26.86,0,17.31h0C0,7.75,7.74,0,17.29,0c0,0,0,0,.01,0ZM3.25,17.31c0,7.77,6.29,14.06,14.06,14.06,7.77,0,14.06-6.29,14.06-14.06,0-7.77-6.29-14.06-14.06-14.06h0c-7.76,0-14.06,6.29-14.06,14.06,0,0,0,0,0,0Z"/>
  </g>
</svg>