
<svg id="tools-used" data-name="tools-used" xmlns="http://www.w3.org/2000/svg" viewBox="0 0 42.56 34.62">
  
    <path d="m30.6,18.39c1.08.3,2.2.45,3.32.46,2.23.07,4.41-.75,6.03-2.29,2.55-2.69,3.3-6.62,1.93-10.06l-.17-.31-.26-.19c-.18-.13-.39-.22-.61-.26l-.12-.02h-.34l-.2.07-.33.12-4.48,4.48c-.36.36-.94.36-1.31,0l-1.87-1.87c-.36-.36-.36-.94,0-1.31l4.23-4.23.25-.26.1-.31c.07-.22.08-.45.04-.68l-.08-.35-.2-.26-.24-.28-.31-.13C34.91.23,33.73,0,32.54,0c-2.44-.01-4.78.93-6.53,2.64-2.23,2.21-2.9,5.66-1.83,9.46.09.33,0,.69-.26.92l-1.61,1.5-1.86-1.81c-.52-.51-1.19-.77-1.86-.8-.02-.02-.04-.05-.06-.08-2.66-2.66-2.64-3.02-2.62-3.61-.04-1.05.41-2.07,1.22-2.74.73-.49,1.57-.8,2.45-.89.42-.04.84-.01,1.25.07.21.05.41.11.61.18.42.16.89.09,1.25-.18.59-.44.71-1.27.28-1.86-.31-.42-.65-.81-1.03-1.16C20.59.57,18.91-.02,17.19,0c-1.32,0-2.62.25-3.84.75-2.32.92-4.44,2.27-6.25,3.99-.65.64-1.24,1.32-1.79,2.05-.33.48-.48,1.06-.43,1.64-.22-.1-.47-.15-.71-.15-.45,0-.88.18-1.2.49L.48,11.19C.17,11.51,0,11.94,0,12.39c0,.46.19.91.51,1.23l3.97,3.87c.32.31.74.48,1.19.48h.02c.22,0,.45-.04.66-.13.21-.08.4-.21.55-.37l2.44-2.38s0,0,0,0c.68-.66.69-1.75.03-2.43.11-.03.23-.05.35-.05h.11c.35.06.68.19.97.38,1.27.86,2.43,1.85,3.48,2.97-.02.77.27,1.53.84,2.1l.46.45c.29.28.67.66,1.17,1.15l-7.22,6.71c-1,.9-1.57,2.17-1.57,3.52,0,2.61,2.11,4.72,4.72,4.72h.13c1.29-.04,2.5-.6,3.37-1.55l6.7-7.15c3.01,3.16,6.06,6.47,7.26,7.85.45.51,1.1.82,1.78.85h.1,0c.66,0,1.29-.26,1.75-.72l2.78-2.77c.05-.05.11-.11.16-.17.86-1.04.72-2.59-.32-3.45-1.47-1.22-5.02-4.45-8.13-7.32l1.43-1.53c.23-.25.58-.35.91-.26ZM10.11,9.97c-.8-.08-1.6.09-2.29.48-.2.11-.38.25-.54.41-.71.73-.9,1.82-.49,2.76.03.06.05.11.08.17l-1.19,1.16-2.62-2.56,1.26-1.23h.03c.22.08.45.12.69.12.08,0,.17,0,.25-.02.62-.05,1.2-.3,1.66-.71.51-.56.73-1.31.6-2.06,0-.08-.01-.18-.01-.26.44-.57.91-1.11,1.42-1.61,1.56-1.47,3.39-2.63,5.38-3.41.74-.3,1.53-.48,2.33-.54-.42.19-.82.43-1.19.71-1.42,1.15-2.24,2.87-2.24,4.7-.08,1.72.58,2.76,2.8,5.03l-.43.42c-1.04-1.06-2.19-2-3.43-2.82-.63-.4-1.34-.66-2.08-.76Zm7.35,6.64l-.45-.45s-.05-.06-.05-.1c0-.02,0-.04,0-.06,0,0,.02-.01.03-.02l1.42-1.41s.06-.02.09-.01c.04,0,.07.02.1.05l1.77,1.72-1.63,1.52c-.55-.54-.96-.94-1.26-1.24Zm-3.21,14.65c-.19.21-.41.38-.67.5-.27.12-.57.19-.87.19-.3,0-.6-.07-.87-.19-1.03-.48-1.48-1.7-1-2.74.12-.26.3-.49.51-.68l11.88-11.04s.01,0,.01-.01c0,0,0,0,0,0l2.49-2.31c.99-.91,1.38-2.3,1.02-3.6-.38-1.34-1.02-4.7,1.14-6.85,1.24-1.2,2.91-1.87,4.64-1.86.15,0,.29,0,.44.02l-2.65,2.64c-1.39,1.4-1.39,3.67,0,5.07l1.87,1.88c1.4,1.39,3.67,1.39,5.07,0l2.66-2.66c.08,1.86-.58,3.68-1.84,5.05-1.13,1.05-2.63,1.6-4.16,1.52-.89,0-1.78-.13-2.64-.37-1.28-.34-2.64.05-3.54,1.02l-13.51,14.44Zm20.27-1.87l-2.48,2.48c-1.3-1.5-4.35-4.79-7.32-7.91l1.73-1.85c3.02,2.79,6.47,5.92,8.07,7.28Z"/>

</svg>