<?xml version="1.0" encoding="UTF-8"?>
<svg id="Layer_2" data-name="Layer 2" xmlns="http://www.w3.org/2000/svg" viewBox="0 0 42.21 41.04">
  <defs>
    <style>
      .cls-1 {
        fill: #040504;
      }
    </style>
  </defs>
  <g id="Layer_1-2" data-name="Layer 1">
    <g id="Group_1701" data-name="Group 1701">
      <path id="Path_1882" data-name="Path 1882" class="cls-1" d="m41.28,14.58L29.56,1.26c-.88-.99-2.22-1.45-3.51-1.19L8.65,3.56c-1.3.26-2.36,1.2-2.78,2.45L.19,22.82c-.42,1.26-.15,2.64.73,3.64l11.72,13.32c.88.99,2.22,1.45,3.51,1.19l17.4-3.49c1.3-.26,2.36-1.2,2.78-2.45l5.67-16.81c.42-1.26.15-2.64-.73-3.64m-29.55,7.62c-1.17,0-2.13-.95-2.13-2.13s.95-2.13,2.13-2.13c1.17,0,2.13.95,2.13,2.13s-.95,2.13-2.13,2.13m17.76,3.45c-.62,2.81-2.73,5.04-5.5,5.82-2.7.76-5.61.06-7.67-1.84-.82-.76-1.33-1.79-1.43-2.9-.03-1.64,2.43-2.03,2.43-2.03l4.31-.71s1.57-.24,5.02-1.03c3.37-.77,2.84,2.69,2.84,2.69m-.16-7.06c-1.17,0-2.13-.95-2.13-2.13,0-1.17.95-2.13,2.13-2.13s2.13.95,2.13,2.13h0c0,1.17-.95,2.13-2.13,2.13"/>
      <path id="Path_1883" data-name="Path 1883" class="cls-1" d="m27.8,26.79c-3.43-1.78-7.62-1.14-10.37,1.58-.78.8-.13,1.35-.13,1.35,1.01,1.09,3.28,1.74,6.21,1.28,1.87-.4,3.5-1.51,4.55-3.11.25-.28.22-.72-.06-.97-.06-.05-.13-.09-.2-.12"/>
    </g>
  </g>
</svg>