<?xml version="1.0" encoding="UTF-8"?>
<svg id="Layer_2" data-name="Layer 2" xmlns="http://www.w3.org/2000/svg" viewBox="0 0 63.5 62.5">
  <g id="Layer_1-2" data-name="Layer 1">
    <path id="Path_2064" data-name="Path 2064" d="m48.39,62.5c-2.23-.02-4.03-1.85-4.01-4.08v-12c-.02-2.23,1.78-4.06,4.01-4.08h4.15v-5.66c0-1.39-.58-2.72-1.59-3.67-1.04-.99-2.43-1.54-3.86-1.54h-14.26v10.87h4.47c2.23.02,4.03,1.85,4.01,4.08v12c.02,2.23-1.78,4.06-4.01,4.08h-11.1c-2.23-.02-4.03-1.85-4.01-4.08v-12c-.02-2.23,1.78-4.06,4.01-4.08h4.47v-10.87h-15.24c-1.44,0-2.82.54-3.86,1.54-1.01.96-1.58,2.28-1.59,3.67v5.66h5.12c2.23.02,4.03,1.85,4.01,4.08v12c.02,2.23-1.78,4.06-4.01,4.08H4.01C1.78,62.48-.02,60.65,0,58.42v-12c-.02-2.23,1.78-4.06,4.01-4.08h3.82v-5.66c0-.99.2-1.96.6-2.87.39-.88.94-1.67,1.64-2.33.7-.67,1.52-1.2,2.42-1.57.94-.38,1.94-.57,2.95-.57h15.24v-9.17h-4.47c-2.23-.02-4.03-1.85-4.01-4.08V4.08c-.02-2.23,1.78-4.06,4.01-4.08h11.1c2.23.02,4.03,1.85,4.01,4.08v12c.02,2.23-1.78,4.06-4.01,4.08h-4.47v9.17h14.26c1.01,0,2.01.19,2.95.57.9.36,1.72.89,2.42,1.57.69.66,1.25,1.46,1.64,2.33.4.9.6,1.88.6,2.87v5.66h4.8c2.23.02,4.03,1.85,4.01,4.08v12c.02,2.23-1.78,4.06-4.01,4.08h-11.1Zm-1.86-16.08v12c-.01,1.04.82,1.9,1.86,1.92h11.09c1.04-.02,1.87-.87,1.86-1.92v-12c.01-1.04-.82-1.9-1.86-1.92h-11.09c-1.04.02-1.87.87-1.86,1.92Zm-22.19,0v12c-.01,1.04.82,1.9,1.86,1.92h11.1c1.04-.02,1.87-.87,1.86-1.92v-12c.01-1.04-.82-1.9-1.86-1.92h-11.1c-1.04.02-1.87.88-1.86,1.92Zm-22.19,0v12c-.01,1.04.82,1.9,1.86,1.92h11.09c1.04-.02,1.87-.87,1.86-1.92v-12c.01-1.04-.82-1.9-1.86-1.92H4.01c-1.04.02-1.87.87-1.86,1.92ZM24.34,4.08v12c-.01,1.04.82,1.9,1.86,1.92h11.1c1.04-.02,1.87-.87,1.86-1.92V4.08c.01-1.04-.82-1.9-1.86-1.92h-11.1c-1.04.02-1.87.88-1.86,1.92h0Z"/>
  </g>
</svg>