<?xml version="1.0" encoding="UTF-8"?>
<svg id="Layer_2" data-name="Layer 2" xmlns="http://www.w3.org/2000/svg" viewBox="0 0 27 27">
  <g id="Layer_1-2" data-name="Layer 1">
    <g id="Group_1919" data-name="Group 1919">
      <path id="Ellipse_2-2" data-name="Ellipse 2-2" d="m13.5,1.72c-6.51,0-11.78,5.28-11.78,11.79,0,4.73,2.83,9,7.19,10.84,5.99,2.53,12.91-.28,15.44-6.27,2.53-5.99-.28-12.91-6.27-15.44-1.45-.61-3.01-.93-4.58-.92m0-1.72c7.46,0,13.5,6.04,13.5,13.5s-6.04,13.5-13.5,13.5S0,20.96,0,13.5,6.04,0,13.5,0Z"/>
      <path id="user" d="m15.24,14.44h-2.86c-2.9,0-5.25,2.35-5.25,5.25,0,.53.43.95.95.95h11.46c.53,0,.95-.43.95-.95,0-2.9-2.35-5.25-5.25-5.25Zm-6.66,4.77c.24-1.91,1.87-3.34,3.79-3.34h2.86c1.92,0,3.55,1.43,3.79,3.34h-10.45Zm5.21-5.22c2.11,0,3.82-1.71,3.82-3.82s-1.71-3.82-3.82-3.82-3.82,1.71-3.82,3.82h0c0,2.11,1.71,3.82,3.82,3.82Zm0-6.21c1.32,0,2.39,1.07,2.39,2.38,0,1.32-1.07,2.39-2.38,2.39s-2.39-1.07-2.39-2.38c0,0,0,0,0,0,0-1.32,1.07-2.38,2.38-2.39h0Z"/>
    </g>
  </g>
</svg>