<?xml version="1.0" encoding="UTF-8"?>
<svg id="Layer_2" data-name="Layer 2" xmlns="http://www.w3.org/2000/svg" viewBox="0 0 40.5 40.26">
  <defs>
    <style>
      .cls-1 {
        fill-rule: evenodd;
      }
    </style>
  </defs>
  <g id="Layer_1-2" data-name="Layer 1">
    <path id="visual-studio" class="cls-1" d="m39.06,4.26L30.73.25c-.31-.15-.65-.23-.99-.25h-.16c-.66.01-1.28.27-1.75.74l-15.95,14.55-6.95-5.27c-.65-.49-1.55-.45-2.15.1l-2.23,2.02C.2,12.46,0,12.91,0,13.38H0c0,.48.2.94.55,1.26l6.03,5.5L.55,25.63c-.69.63-.74,1.7-.11,2.39.03.04.07.07.11.11l2.23,2.02c.6.55,1.51.6,2.16.1l6.95-5.27,15.95,14.55c.42.42.96.67,1.55.72h.02s.08,0,.11,0,.1,0,.15,0h.06c.35-.01.69-.1,1-.25l8.34-4.01c.87-.42,1.43-1.31,1.43-2.28V6.54c0-.97-.56-1.86-1.43-2.28Zm-8.7,25.04l-12.09-9.17,12.09-9.18v18.35Z"/>
  </g>
</svg>