
<svg id="wireframes" data-name="wireframes" xmlns="http://www.w3.org/2000/svg" viewBox="0 0 62.58 62.58">


      <path d="m60.55,0H2.03C.91,0,0,.91,0,2.03v58.53c0,1.12.91,2.03,2.03,2.03h58.53c1.12,0,2.03-.91,2.03-2.03V2.03c0-1.12-.91-2.03-2.03-2.03m.03,2.03v8.22H2.02V2s58.56.03,58.56.03ZM2.03,60.58l-.03-.03.02-48.31h58.55l-.02,48.34H2.03Z"/>
      <path d="m41.38,6.93c.57,0,1.04-.46,1.04-1.03s-.46-1.04-1.03-1.04-1.04.46-1.04,1.03h0c0,.57.46,1.04,1.03,1.04"/>
      <path d="m33.97,37.83c-.57,0-1.03.46-1.03,1.04s.46,1.03,1.04,1.03c.57,0,1.03-.46,1.03-1.03,0-.57-.46-1.04-1.04-1.04"/>
      <path d="m33.97,45.23c-.57,0-1.03.46-1.03,1.04s.46,1.03,1.04,1.03c.57,0,1.03-.46,1.03-1.03,0-.57-.46-1.04-1.04-1.04"/>
      <path d="m33.97,52.62c-.57,0-1.03.46-1.03,1.04s.46,1.03,1.04,1.03c.57,0,1.03-.46,1.03-1.03,0-.57-.46-1.04-1.04-1.04"/>
      <path d="m48.85,6.93c.57,0,1.04-.46,1.04-1.04s-.46-1.04-1.04-1.04-1.04.46-1.04,1.04h0c0,.57.46,1.04,1.04,1.04"/>
      <path d="m56.22,6.93c.57,0,1.04-.46,1.04-1.04s-.46-1.04-1.04-1.04-1.04.46-1.04,1.04h0c0,.57.46,1.04,1.04,1.04"/>
      <path d="m9.64,32.29h43.76c.43,0,.83-.23,1.06-.6.03-.04.06-.08.08-.12.02-.04.04-.08.06-.12.02-.04.04-.07.05-.11.02-.08.02-.16.02-.24,0-.03.02-.06.02-.1v-12.26c0-.71-.58-1.28-1.28-1.28H9.64c-.42,0-.81.22-1.04.57-.02.03-.04.06-.06.09-.04.06-.07.12-.1.19-.02.03-.04.07-.05.1-.02.08-.02.16-.02.24,0,.03-.02.06-.02.1v12.26c0,.71.58,1.28,1.28,1.28,0,0,0,0,0,0m.72-12.29l36.81,10.29H10.36v-10.29Zm42.32,9.76L15.87,19.46h36.81v10.3Z"/>
      <path d="m9.4,37.81l-1.04.04v15.76l.04,1.04h18.25l1.04-.04v-15.76l-.04-1.04H9.4Zm16.29,13.46l-13.41-11.46h13.41v11.46Zm-15.33-10.47l13.88,11.86h-13.88v-11.86Z"/>
      <path d="m54.24,37.87h-15.79c-.55,0-1,.45-1,1s.45,1,1,1h15.79c.55,0,1-.45,1-1s-.45-1-1-1"/>
      <path d="m54.24,45.24h-15.79c-.55,0-1,.45-1,1s.45,1,1,1h15.79c.55,0,1-.45,1-1s-.45-1-1-1"/>
      <path  d="m54.24,52.6h-15.79c-.55,0-1,.45-1,1s.45,1,1,1h15.79c.55,0,1-.45,1-1s-.45-1-1-1"/>

</svg>