
<svg id="xd" data-name="xd" xmlns="http://www.w3.org/2000/svg" viewBox="0 0 42.02 42.01">
 
      <polygon points="10.39 30.62 14.64 23.62 18.91 30.62 23.34 30.62 17.11 21.4 22.85 12.3 18.67 12.3 14.85 18.91 10.9 12.3 6.61 12.3 12.3 21.29 6.21 30.62 10.39 30.62"/>
      <path d="m21.94,23.64c-.11,1.88.38,3.74,1.4,5.32.88,1.25,2.33,1.97,3.85,1.92,1.61.1,3.14-.69,3.99-2.06h.16l.72,1.8h2.94V11.14h-3.83v4.46c.01.94.11,1.88.28,2.8h-.12c-.9-1.34-2.43-2.11-4.04-2.05-1.56-.05-3.04.67-3.95,1.94-1.04,1.59-1.54,3.47-1.42,5.37Zm4.48-3.11c.43-.68,1.18-1.08,1.98-1.07.9-.1,1.78.27,2.33.98.55.98.79,2.1.7,3.22v.42c.05,1.02-.21,2.03-.75,2.89-.54.61-1.33.93-2.15.86-.85.06-1.66-.34-2.12-1.05-.53-.94-.78-2.01-.7-3.08-.07-1.1.17-2.2.7-3.17Z"/>
      <path d="m37.35,0H4.67C2.09,0,0,2.09,0,4.67v32.68c0,2.58,2.09,4.67,4.67,4.67h32.68c2.58,0,4.67-2.09,4.67-4.67V4.67c0-2.58-2.09-4.67-4.67-4.67Zm0,37.35H4.67V4.67h32.68v32.68Z"/>
  
</svg>