<?xml version="1.0" encoding="UTF-8"?>
<svg id="Layer_1" data-name="Layer 1" xmlns="http://www.w3.org/2000/svg" viewBox="0 0 448 431.57">
  <defs>
    <style>
      .cls-1 {
        fill: #fff;
      }
    </style>
  </defs>
  <rect width="448" height="431.57" rx="154.89" ry="154.89"/>
  <path class="cls-1" d="m195.14,303.89c1.97,29.6,20.08,42.69,52.8,42.69l.74-.02c4.87.04,5.38.1,7.08.05h14.25c.07,0,.14,0,.21,0h.08c4.05-.01,6.32-1.71,6.32-5.76,0-1.61.05-4.29-2.99-5.98-11.82-5.7-20.75-17.76-21.43-30.71l-.21-11.35v-43.78c-.12.09-.23.19-.35.29l-.96.69-53.16,36.14c-1.69,1.15-2.69,3.08-2.64,5.12l.26,12.63Z"/>
  <path class="cls-1" d="m283.35,299.42l.15,5.25c1.97,29.6,20.08,42.69,52.8,42.69l.92-.02c4.87.04,6.24.1,7.94.05h14.25c.07,0,.15,0,.21,0h.08c4.05-.01,6.32-1.71,6.32-5.76,0-1.61.05-4.29-2.99-5.98-11.82-5.7-20.75-17.76-21.43-30.71l-.21-101.3-.19-65.47s0-.48,0-.77v-.96h-.01c0-.82,0-1.11-.05-2.44-.02-.55-.01-1-.05-1.39-1.97-29.6-20.08-42.69-52.8-42.69l-23.14.3c-.07,0-.15,0-.21,0h-.08c-4.05.01-6.32,1.71-6.32,5.76,0,1.61-.05,4.29,2.99,5.98,11.82,5.7,20.75,17.76,21.43,30.71l.4,166.78Z"/>
  <path class="cls-1" d="m111.63,88.41c19.84,0,34.2,4.92,42.96,15.3.14.19.08.15.17-.03,3.47-8.42,12.15-15.13,20.07-15.13l24.72.08c4.84,0,9.4.34,13.61.91,27.58,2.35,39.17,16.43,39.85,45.57v1.92s0,29.87,0,29.87l-.27,28.34c0,13.3-10.41,24.29-20.24,31.8l-60.41,40.43h0c-3.97,2.65-6.71,7.73-6.91,11.8l.04,5.77h0v62.36l-4.95-.03c-32.73,0-50.83-13.08-52.8-42.69l-.44-46.39c0-6.08,3.05-11.76,8.13-15.11l53.23-35.19v.04s8.62-5.85,8.62-5.85c12.72-9.25,17.92-16.19,17.92-26.02l-.12-30.6c-.31-6.57-4.35-10.67-9.83-10.67h-10.21c-5.11,0-9.62,4.49-9.78,11.23v7.65h-.06s0,16.24,0,16.24c0,3.04-1.53,5.88-4.06,7.56l-53.75,35.54v-74.96l-.04-4.22c-.02-1.46-.09-2.82-.17-4.16-.99-10.97-8.12-21.2-17.6-27.3-1.37-.87-2.78-1.67-4.22-2.36-2.28-1.27-2.82-3.09-2.95-4.6-.04-.5-.04-.97-.04-1.38,0-4.05,2.27-5.75,6.32-5.75h.08c.07-.01.14-.01.21-.01h14.25l8.68.03Z"/>
</svg>